
<mxfile host="drawio-plugin" modified="2023-03-29T08:11:02.914Z" agent="5.0 (Windows NT 6.2; Win64; x64) AppleWebKit/537.36 (KHTML, like Gecko) Chrome/84.0.4147.105 Safari/537.36" etag="0hsJdbkvFUG8tort24ef" version="14.7.4" type="embed">
<diagram id="GNU3i8hCxYjH3E0Nk9u4" name="Page-1">
<mxGraphModel dx="1230" dy="659" grid="1" gridSize="10" guides="1" tooltips="1" connect="1" arrows="1" fold="1" page="1" pageScale="1" pageWidth="850" pageHeight="1100" math="0" shadow="0">
<root>
<mxCell id="0"/>
<mxCell id="1" parent="0"/>
    
    
        <!-- pub 60-->
        
            <mxCell id="FXCXVvDxTQtwc45PbP1s-896" value="Icons" style="" parent="0"/>
            <mxCell id="FXCXVvDxTQtwc45PbP1s-895" value="" style="swimlane;fontStyle=0;horizontal=1;collapsible=0;startSize=28;swimlaneLine=0;swimlaneFillColor=none;fillColor=none;rounded=0;whiteSpace=wrap;html=1;absoluteArcSize=1;arcSize=0;strokeColor=#4376BB;verticalAlign=top;align=left;spacingLeft=5;dashed=0;strokeWidth=1;container=1;" parent="1" vertex="1">
            <mxGeometry width="1920" height="1040" x="40" y="40" as="geometry"/>
            </mxCell>
            <mxCell id="FXCXVvDxTQtwc45PbP1s-897" value="Public&lt;br&gt;Network" style="aspect=fixed;perimeter=ellipsePerimeter;html=1;align=left;shadow=0;dashed=0;labelBackgroundColor=none;fontSize=12;spacingTop=0;image;image=img/lib/ibm/vpc/PublicTag.svg;part=1;labelPosition=right;verticalLabelPosition=middle;verticalAlign=middle;" parent="FXCXVvDxTQtwc45PbP1s-895" vertex="1">
            <mxGeometry width="30" height="30" as="geometry"/>
            </mxCell>
        

    
        <!-- internet 60-->
        
            <mxCell id="FXCXVvDxTQtwc45PbP1s-900" value="161.26.0.0/16" style="aspect=fixed;perimeter=ellipsePerimeter;html=1;align=center;shadow=0;dashed=0;fontColor=#4277BB;labelBackgroundColor=#ffffff;fontSize=12;spacingTop=3;image;image=img/lib/ibm/vpc/Internet.svg;" parent="FXCXVvDxTQtwc45PbP1s-895" vertex="1">
            <mxGeometry width="60" height="60" x="50" y="50" as="geometry"/>
            </mxCell>
        

    
        <!-- internet 60-->
        
            <mxCell id="FXCXVvDxTQtwc45PbP1s-905" value="166.8.0.0/14" style="aspect=fixed;perimeter=ellipsePerimeter;html=1;align=center;shadow=0;dashed=0;fontColor=#4277BB;labelBackgroundColor=#ffffff;fontSize=12;spacingTop=3;image;image=img/lib/ibm/vpc/Internet.svg;" parent="FXCXVvDxTQtwc45PbP1s-895" vertex="1">
            <mxGeometry width="60" height="60" x="50" y="210" as="geometry"/>
            </mxCell>
        

    
        <!-- internet 60-->
        
            <mxCell id="FXCXVvDxTQtwc45PbP1s-910" value="192.0.1.0/24" style="aspect=fixed;perimeter=ellipsePerimeter;html=1;align=center;shadow=0;dashed=0;fontColor=#4277BB;labelBackgroundColor=#ffffff;fontSize=12;spacingTop=3;image;image=img/lib/ibm/vpc/Internet.svg;" parent="FXCXVvDxTQtwc45PbP1s-895" vertex="1">
            <mxGeometry width="60" height="60" x="50" y="370" as="geometry"/>
            </mxCell>
        

    
        <!-- vpc 60-->
        
            <mxCell id="FXCXVvDxTQtwc45PbP1s-1230" value="VPC" style="swimlane;fontStyle=0;horizontal=1;collapsible=0;startSize=28;swimlaneLine=0;swimlaneFillColor=none;fillColor=none;rounded=0;whiteSpace=wrap;html=1;absoluteArcSize=1;arcSize=12;strokeColor=#417CB9;verticalAlign=top;align=left;spacingLeft=30;spacingTop=1;dashed=0;strokeWidth=1;" parent="FXCXVvDxTQtwc45PbP1s-895" vertex="1">
            <mxGeometry width="1720" height="960" x="160" y="40" as="geometry"/>
            </mxCell>
            <mxCell id="FXCXVvDxTQtwc45PbP1s-1231" value="" style="aspect=fixed;perimeter=ellipsePerimeter;html=1;align=center;shadow=0;dashed=0;fontColor=#4277BB;labelBackgroundColor=#ffffff;fontSize=12;spacingTop=3;image;image=img/lib/ibm/vpc/VPCTag.svg;part=1;" parent="FXCXVvDxTQtwc45PbP1s-1230" vertex="1">
            <mxGeometry width="30" height="30" as="geometry"/>
            </mxCell>
        

    
        <!-- zone 60-->
        
            <mxCell id="FXCXVvDxTQtwc45PbP1s-1235" value="us-south-3" style="swimlane;fontStyle=0;horizontal=1;collapsible=0;startSize=28;swimlaneLine=0;swimlaneFillColor=none;fillColor=none;rounded=0;whiteSpace=wrap;html=1;absoluteArcSize=1;arcSize=0;strokeColor=#00882B;verticalAlign=top;align=left;spacingLeft=30;dashed=1;strokeWidth=1;container=1;" parent="FXCXVvDxTQtwc45PbP1s-1230" vertex="1">
            <mxGeometry width="520" height="880" x="40" y="40" as="geometry"/>
            </mxCell>
            <mxCell id="FXCXVvDxTQtwc45PbP1s-1236" value="" style="aspect=fixed;perimeter=ellipsePerimeter;html=1;align=center;shadow=0;dashed=0;fontColor=#4277BB;labelBackgroundColor=#ffffff;fontSize=12;spacingTop=3;image;image=img/lib/ibm/vpc/ZoneTag.svg;part=1;" parent="FXCXVvDxTQtwc45PbP1s-1235" vertex="1">
            <mxGeometry width="30" height="30" as="geometry"/>
            </mxCell>
        

    
        <!-- subnet 60-->
        
            <mxCell id="FXCXVvDxTQtwc45PbP1s-1240" value="0000000: ky-testenv-transit-subnet-3" style="swimlane;fontStyle=0;horizontal=1;collapsible=0;startSize=28;swimlaneLine=0;swimlaneFillColor=none;fillColor=none;rounded=0;whiteSpace=wrap;html=1;absoluteArcSize=1;arcSize=12;strokeColor=#2A8838;verticalAlign=top;align=left;spacingLeft=30;spacingTop=1;dashed=0;strokeWidth=1;" parent="FXCXVvDxTQtwc45PbP1s-1235" vertex="1">
            <mxGeometry width="320" height="240" x="160" y="600" as="geometry"/>
            </mxCell>
            <mxCell id="FXCXVvDxTQtwc45PbP1s-1241" value="key" style="aspect=fixed;perimeter=ellipsePerimeter;html=1;align=center;shadow=0;dashed=0;fontColor=#4277BB;labelBackgroundColor=#ffffff;fontSize=12;spacingTop=3;image;image=img/lib/ibm/vpc/SubnetTag.svg;part=1;" parent="FXCXVvDxTQtwc45PbP1s-1240" vertex="1">
            <mxGeometry width="30" height="40" as="geometry"/>
            </mxCell>
        

    
        <!-- ni 60-->
        
            <mxCell id="FXCXVvDxTQtwc45PbP1s-1245" value="transit-2-instance-ky" style="aspect=fixed;perimeter=ellipsePerimeter;html=1;align=center;shadow=0;dashed=0;fontColor=#4277BB;labelBackgroundColor=#ffffff;fontSize=12;spacingTop=3;image;image=img/lib/ibm/devops/release_management.svg;" parent="FXCXVvDxTQtwc45PbP1s-1240" vertex="1">
            <mxGeometry width="60" height="60" x="130" y="90" as="geometry"/>
            </mxCell>
            
            
        

    
        <!-- subnet 60-->
        
            <mxCell id="FXCXVvDxTQtwc45PbP1s-1250" value="0000000: ky-testenv-edge-subnet-3" style="swimlane;fontStyle=0;horizontal=1;collapsible=0;startSize=28;swimlaneLine=0;swimlaneFillColor=none;fillColor=none;rounded=0;whiteSpace=wrap;html=1;absoluteArcSize=1;arcSize=12;strokeColor=#2A8838;verticalAlign=top;align=left;spacingLeft=30;spacingTop=1;dashed=0;strokeWidth=1;" parent="FXCXVvDxTQtwc45PbP1s-1235" vertex="1">
            <mxGeometry width="320" height="240" x="160" y="40" as="geometry"/>
            </mxCell>
            <mxCell id="FXCXVvDxTQtwc45PbP1s-1251" value="key" style="aspect=fixed;perimeter=ellipsePerimeter;html=1;align=center;shadow=0;dashed=0;fontColor=#4277BB;labelBackgroundColor=#ffffff;fontSize=12;spacingTop=3;image;image=img/lib/ibm/vpc/SubnetTag.svg;part=1;" parent="FXCXVvDxTQtwc45PbP1s-1250" vertex="1">
            <mxGeometry width="30" height="40" as="geometry"/>
            </mxCell>
        

    
        <!-- ni 60-->
        
            <mxCell id="FXCXVvDxTQtwc45PbP1s-1255" value="edge-2-instance-ky" style="aspect=fixed;perimeter=ellipsePerimeter;html=1;align=center;shadow=0;dashed=0;fontColor=#4277BB;labelBackgroundColor=#ffffff;fontSize=12;spacingTop=3;image;image=img/lib/ibm/devops/release_management.svg;" parent="FXCXVvDxTQtwc45PbP1s-1250" vertex="1">
            <mxGeometry width="60" height="60" x="130" y="90" as="geometry"/>
            </mxCell>
            
                <mxCell id="FXCXVvDxTQtwc45PbP1s-1256" value="vsi_name" style="aspect=fixed;perimeter=ellipsePerimeter;html=1;align=center;shadow=0;dashed=0;fontColor=#4277BB;labelBackgroundColor=#ffffff;fontSize=12;spacingTop=3;image;image=img/lib/ibm/vpc/Instance.svg;" parent="FXCXVvDxTQtwc45PbP1s-1255" vertex="1">
                <mxGeometry x="30" y="-20" width="60" height="60" as="geometry"/>
                </mxCell>
            
            
        

    
        <!-- subnet 60-->
        
            <mxCell id="FXCXVvDxTQtwc45PbP1s-1260" value="0000000: ky-testenv-private-subnet-3" style="swimlane;fontStyle=0;horizontal=1;collapsible=0;startSize=28;swimlaneLine=0;swimlaneFillColor=none;fillColor=none;rounded=0;whiteSpace=wrap;html=1;absoluteArcSize=1;arcSize=12;strokeColor=#2A8838;verticalAlign=top;align=left;spacingLeft=30;spacingTop=1;dashed=0;strokeWidth=1;" parent="FXCXVvDxTQtwc45PbP1s-1235" vertex="1">
            <mxGeometry width="320" height="240" x="160" y="320" as="geometry"/>
            </mxCell>
            <mxCell id="FXCXVvDxTQtwc45PbP1s-1261" value="key" style="aspect=fixed;perimeter=ellipsePerimeter;html=1;align=center;shadow=0;dashed=0;fontColor=#4277BB;labelBackgroundColor=#ffffff;fontSize=12;spacingTop=3;image;image=img/lib/ibm/vpc/SubnetTag.svg;part=1;" parent="FXCXVvDxTQtwc45PbP1s-1260" vertex="1">
            <mxGeometry width="30" height="40" as="geometry"/>
            </mxCell>
        

    
        <!-- ni 60-->
        
            <mxCell id="FXCXVvDxTQtwc45PbP1s-1265" value="private-2-instance-ky" style="aspect=fixed;perimeter=ellipsePerimeter;html=1;align=center;shadow=0;dashed=0;fontColor=#4277BB;labelBackgroundColor=#ffffff;fontSize=12;spacingTop=3;image;image=img/lib/ibm/devops/release_management.svg;" parent="FXCXVvDxTQtwc45PbP1s-1260" vertex="1">
            <mxGeometry width="60" height="60" x="130" y="90" as="geometry"/>
            </mxCell>
            
                <mxCell id="FXCXVvDxTQtwc45PbP1s-1266" value="vsi_name" style="aspect=fixed;perimeter=ellipsePerimeter;html=1;align=center;shadow=0;dashed=0;fontColor=#4277BB;labelBackgroundColor=#ffffff;fontSize=12;spacingTop=3;image;image=img/lib/ibm/vpc/Instance.svg;" parent="FXCXVvDxTQtwc45PbP1s-1265" vertex="1">
                <mxGeometry x="30" y="-20" width="60" height="60" as="geometry"/>
                </mxCell>
            
            
        

    
        <!-- gateway 60-->
        
            <mxCell id="FXCXVvDxTQtwc45PbP1s-1270" value="ky-testenv-gateway-3" style="aspect=fixed;perimeter=ellipsePerimeter;html=1;align=center;shadow=0;dashed=0;fontColor=#4277BB;labelBackgroundColor=#ffffff;fontSize=12;spacingTop=3;image;image=img/lib/ibm/vpc/PublicGateway.svg;" parent="FXCXVvDxTQtwc45PbP1s-1235" vertex="1">
            <mxGeometry width="60" height="60" x="50" y="130" as="geometry"/>
            </mxCell>
        

    
        <!-- zone 60-->
        
            <mxCell id="FXCXVvDxTQtwc45PbP1s-1275" value="us-south-2" style="swimlane;fontStyle=0;horizontal=1;collapsible=0;startSize=28;swimlaneLine=0;swimlaneFillColor=none;fillColor=none;rounded=0;whiteSpace=wrap;html=1;absoluteArcSize=1;arcSize=0;strokeColor=#00882B;verticalAlign=top;align=left;spacingLeft=30;dashed=1;strokeWidth=1;container=1;" parent="FXCXVvDxTQtwc45PbP1s-1230" vertex="1">
            <mxGeometry width="520" height="880" x="600" y="40" as="geometry"/>
            </mxCell>
            <mxCell id="FXCXVvDxTQtwc45PbP1s-1276" value="" style="aspect=fixed;perimeter=ellipsePerimeter;html=1;align=center;shadow=0;dashed=0;fontColor=#4277BB;labelBackgroundColor=#ffffff;fontSize=12;spacingTop=3;image;image=img/lib/ibm/vpc/ZoneTag.svg;part=1;" parent="FXCXVvDxTQtwc45PbP1s-1275" vertex="1">
            <mxGeometry width="30" height="30" as="geometry"/>
            </mxCell>
        

    
        <!-- subnet 60-->
        
            <mxCell id="FXCXVvDxTQtwc45PbP1s-1280" value="0000000: ky-testenv-transit-subnet-2" style="swimlane;fontStyle=0;horizontal=1;collapsible=0;startSize=28;swimlaneLine=0;swimlaneFillColor=none;fillColor=none;rounded=0;whiteSpace=wrap;html=1;absoluteArcSize=1;arcSize=12;strokeColor=#2A8838;verticalAlign=top;align=left;spacingLeft=30;spacingTop=1;dashed=0;strokeWidth=1;" parent="FXCXVvDxTQtwc45PbP1s-1275" vertex="1">
            <mxGeometry width="320" height="240" x="160" y="600" as="geometry"/>
            </mxCell>
            <mxCell id="FXCXVvDxTQtwc45PbP1s-1281" value="key" style="aspect=fixed;perimeter=ellipsePerimeter;html=1;align=center;shadow=0;dashed=0;fontColor=#4277BB;labelBackgroundColor=#ffffff;fontSize=12;spacingTop=3;image;image=img/lib/ibm/vpc/SubnetTag.svg;part=1;" parent="FXCXVvDxTQtwc45PbP1s-1280" vertex="1">
            <mxGeometry width="30" height="40" as="geometry"/>
            </mxCell>
        

    
        <!-- ni 60-->
        
            <mxCell id="FXCXVvDxTQtwc45PbP1s-1285" value="transit-1-instance-ky" style="aspect=fixed;perimeter=ellipsePerimeter;html=1;align=center;shadow=0;dashed=0;fontColor=#4277BB;labelBackgroundColor=#ffffff;fontSize=12;spacingTop=3;image;image=img/lib/ibm/devops/release_management.svg;" parent="FXCXVvDxTQtwc45PbP1s-1280" vertex="1">
            <mxGeometry width="60" height="60" x="130" y="90" as="geometry"/>
            </mxCell>
            
                <mxCell id="FXCXVvDxTQtwc45PbP1s-1286" value="vsi_name" style="aspect=fixed;perimeter=ellipsePerimeter;html=1;align=center;shadow=0;dashed=0;fontColor=#4277BB;labelBackgroundColor=#ffffff;fontSize=12;spacingTop=3;image;image=img/lib/ibm/vpc/Instance.svg;" parent="FXCXVvDxTQtwc45PbP1s-1285" vertex="1">
                <mxGeometry x="30" y="-20" width="60" height="60" as="geometry"/>
                </mxCell>
            
            
                <mxCell id="FXCXVvDxTQtwc45PbP1s-1287" value="fip_name" style="aspect=fixed;perimeter=ellipsePerimeter;html=1;align=center;shadow=0;dashed=0;fontColor=#4277BB;labelBackgroundColor=#ffffff;fontSize=12;spacingTop=3;image;image=img/lib/ibm/vpc/FloatingIP.svg;flipH=1;" parent="FXCXVvDxTQtwc45PbP1s-1285" vertex="1">
                <mxGeometry x="-50" y="10" width="60" height="60" as="geometry"/>
                </mxCell>
            
        

    
        <!-- subnet 60-->
        
            <mxCell id="FXCXVvDxTQtwc45PbP1s-1290" value="0000000: ky-testenv-edge-subnet-2" style="swimlane;fontStyle=0;horizontal=1;collapsible=0;startSize=28;swimlaneLine=0;swimlaneFillColor=none;fillColor=none;rounded=0;whiteSpace=wrap;html=1;absoluteArcSize=1;arcSize=12;strokeColor=#2A8838;verticalAlign=top;align=left;spacingLeft=30;spacingTop=1;dashed=0;strokeWidth=1;" parent="FXCXVvDxTQtwc45PbP1s-1275" vertex="1">
            <mxGeometry width="320" height="240" x="160" y="40" as="geometry"/>
            </mxCell>
            <mxCell id="FXCXVvDxTQtwc45PbP1s-1291" value="key" style="aspect=fixed;perimeter=ellipsePerimeter;html=1;align=center;shadow=0;dashed=0;fontColor=#4277BB;labelBackgroundColor=#ffffff;fontSize=12;spacingTop=3;image;image=img/lib/ibm/vpc/SubnetTag.svg;part=1;" parent="FXCXVvDxTQtwc45PbP1s-1290" vertex="1">
            <mxGeometry width="30" height="40" as="geometry"/>
            </mxCell>
        

    
        <!-- ni 60-->
        
            <mxCell id="FXCXVvDxTQtwc45PbP1s-1295" value="edge-1-instance-ky" style="aspect=fixed;perimeter=ellipsePerimeter;html=1;align=center;shadow=0;dashed=0;fontColor=#4277BB;labelBackgroundColor=#ffffff;fontSize=12;spacingTop=3;image;image=img/lib/ibm/devops/release_management.svg;" parent="FXCXVvDxTQtwc45PbP1s-1290" vertex="1">
            <mxGeometry width="60" height="60" x="130" y="90" as="geometry"/>
            </mxCell>
            
                <mxCell id="FXCXVvDxTQtwc45PbP1s-1296" value="vsi_name" style="aspect=fixed;perimeter=ellipsePerimeter;html=1;align=center;shadow=0;dashed=0;fontColor=#4277BB;labelBackgroundColor=#ffffff;fontSize=12;spacingTop=3;image;image=img/lib/ibm/vpc/Instance.svg;" parent="FXCXVvDxTQtwc45PbP1s-1295" vertex="1">
                <mxGeometry x="30" y="-20" width="60" height="60" as="geometry"/>
                </mxCell>
            
            
        

    
        <!-- subnet 60-->
        
            <mxCell id="FXCXVvDxTQtwc45PbP1s-1300" value="0000000: ky-testenv-private-subnet-2" style="swimlane;fontStyle=0;horizontal=1;collapsible=0;startSize=28;swimlaneLine=0;swimlaneFillColor=none;fillColor=none;rounded=0;whiteSpace=wrap;html=1;absoluteArcSize=1;arcSize=12;strokeColor=#2A8838;verticalAlign=top;align=left;spacingLeft=30;spacingTop=1;dashed=0;strokeWidth=1;" parent="FXCXVvDxTQtwc45PbP1s-1275" vertex="1">
            <mxGeometry width="320" height="240" x="160" y="320" as="geometry"/>
            </mxCell>
            <mxCell id="FXCXVvDxTQtwc45PbP1s-1301" value="key" style="aspect=fixed;perimeter=ellipsePerimeter;html=1;align=center;shadow=0;dashed=0;fontColor=#4277BB;labelBackgroundColor=#ffffff;fontSize=12;spacingTop=3;image;image=img/lib/ibm/vpc/SubnetTag.svg;part=1;" parent="FXCXVvDxTQtwc45PbP1s-1300" vertex="1">
            <mxGeometry width="30" height="40" as="geometry"/>
            </mxCell>
        

    
        <!-- ni 60-->
        
            <mxCell id="FXCXVvDxTQtwc45PbP1s-1305" value="private-1-instance-ky" style="aspect=fixed;perimeter=ellipsePerimeter;html=1;align=center;shadow=0;dashed=0;fontColor=#4277BB;labelBackgroundColor=#ffffff;fontSize=12;spacingTop=3;image;image=img/lib/ibm/devops/release_management.svg;" parent="FXCXVvDxTQtwc45PbP1s-1300" vertex="1">
            <mxGeometry width="60" height="60" x="130" y="90" as="geometry"/>
            </mxCell>
            
                <mxCell id="FXCXVvDxTQtwc45PbP1s-1306" value="vsi_name" style="aspect=fixed;perimeter=ellipsePerimeter;html=1;align=center;shadow=0;dashed=0;fontColor=#4277BB;labelBackgroundColor=#ffffff;fontSize=12;spacingTop=3;image;image=img/lib/ibm/vpc/Instance.svg;" parent="FXCXVvDxTQtwc45PbP1s-1305" vertex="1">
                <mxGeometry x="30" y="-20" width="60" height="60" as="geometry"/>
                </mxCell>
            
            
        

    
        <!-- gateway 60-->
        
            <mxCell id="FXCXVvDxTQtwc45PbP1s-1310" value="ky-testenv-gateway-2" style="aspect=fixed;perimeter=ellipsePerimeter;html=1;align=center;shadow=0;dashed=0;fontColor=#4277BB;labelBackgroundColor=#ffffff;fontSize=12;spacingTop=3;image;image=img/lib/ibm/vpc/PublicGateway.svg;" parent="FXCXVvDxTQtwc45PbP1s-1275" vertex="1">
            <mxGeometry width="60" height="60" x="50" y="410" as="geometry"/>
            </mxCell>
        

    
        <!-- zone 60-->
        
            <mxCell id="FXCXVvDxTQtwc45PbP1s-1315" value="us-south-1" style="swimlane;fontStyle=0;horizontal=1;collapsible=0;startSize=28;swimlaneLine=0;swimlaneFillColor=none;fillColor=none;rounded=0;whiteSpace=wrap;html=1;absoluteArcSize=1;arcSize=0;strokeColor=#00882B;verticalAlign=top;align=left;spacingLeft=30;dashed=1;strokeWidth=1;container=1;" parent="FXCXVvDxTQtwc45PbP1s-1230" vertex="1">
            <mxGeometry width="520" height="880" x="1160" y="40" as="geometry"/>
            </mxCell>
            <mxCell id="FXCXVvDxTQtwc45PbP1s-1316" value="" style="aspect=fixed;perimeter=ellipsePerimeter;html=1;align=center;shadow=0;dashed=0;fontColor=#4277BB;labelBackgroundColor=#ffffff;fontSize=12;spacingTop=3;image;image=img/lib/ibm/vpc/ZoneTag.svg;part=1;" parent="FXCXVvDxTQtwc45PbP1s-1315" vertex="1">
            <mxGeometry width="30" height="30" as="geometry"/>
            </mxCell>
        

    
        <!-- subnet 60-->
        
            <mxCell id="FXCXVvDxTQtwc45PbP1s-1320" value="0000000: ky-testenv-private-subnet-1" style="swimlane;fontStyle=0;horizontal=1;collapsible=0;startSize=28;swimlaneLine=0;swimlaneFillColor=none;fillColor=none;rounded=0;whiteSpace=wrap;html=1;absoluteArcSize=1;arcSize=12;strokeColor=#2A8838;verticalAlign=top;align=left;spacingLeft=30;spacingTop=1;dashed=0;strokeWidth=1;" parent="FXCXVvDxTQtwc45PbP1s-1315" vertex="1">
            <mxGeometry width="320" height="240" x="160" y="320" as="geometry"/>
            </mxCell>
            <mxCell id="FXCXVvDxTQtwc45PbP1s-1321" value="key" style="aspect=fixed;perimeter=ellipsePerimeter;html=1;align=center;shadow=0;dashed=0;fontColor=#4277BB;labelBackgroundColor=#ffffff;fontSize=12;spacingTop=3;image;image=img/lib/ibm/vpc/SubnetTag.svg;part=1;" parent="FXCXVvDxTQtwc45PbP1s-1320" vertex="1">
            <mxGeometry width="30" height="40" as="geometry"/>
            </mxCell>
        

    
        <!-- ni 60-->
        
            <mxCell id="FXCXVvDxTQtwc45PbP1s-1325" value="private-0-instance-ky" style="aspect=fixed;perimeter=ellipsePerimeter;html=1;align=center;shadow=0;dashed=0;fontColor=#4277BB;labelBackgroundColor=#ffffff;fontSize=12;spacingTop=3;image;image=img/lib/ibm/devops/release_management.svg;" parent="FXCXVvDxTQtwc45PbP1s-1320" vertex="1">
            <mxGeometry width="60" height="60" x="130" y="90" as="geometry"/>
            </mxCell>
            
                <mxCell id="FXCXVvDxTQtwc45PbP1s-1326" value="vsi_name" style="aspect=fixed;perimeter=ellipsePerimeter;html=1;align=center;shadow=0;dashed=0;fontColor=#4277BB;labelBackgroundColor=#ffffff;fontSize=12;spacingTop=3;image;image=img/lib/ibm/vpc/Instance.svg;" parent="FXCXVvDxTQtwc45PbP1s-1325" vertex="1">
                <mxGeometry x="30" y="-20" width="60" height="60" as="geometry"/>
                </mxCell>
            
            
                <mxCell id="FXCXVvDxTQtwc45PbP1s-1327" value="fip_name" style="aspect=fixed;perimeter=ellipsePerimeter;html=1;align=center;shadow=0;dashed=0;fontColor=#4277BB;labelBackgroundColor=#ffffff;fontSize=12;spacingTop=3;image;image=img/lib/ibm/vpc/FloatingIP.svg;flipH=1;" parent="FXCXVvDxTQtwc45PbP1s-1325" vertex="1">
                <mxGeometry x="-50" y="10" width="60" height="60" as="geometry"/>
                </mxCell>
            
        

    
        <!-- subnet 60-->
        
            <mxCell id="FXCXVvDxTQtwc45PbP1s-1330" value="0000000: ky-testenv-edge-subnet-1" style="swimlane;fontStyle=0;horizontal=1;collapsible=0;startSize=28;swimlaneLine=0;swimlaneFillColor=none;fillColor=none;rounded=0;whiteSpace=wrap;html=1;absoluteArcSize=1;arcSize=12;strokeColor=#2A8838;verticalAlign=top;align=left;spacingLeft=30;spacingTop=1;dashed=0;strokeWidth=1;" parent="FXCXVvDxTQtwc45PbP1s-1315" vertex="1">
            <mxGeometry width="320" height="240" x="160" y="40" as="geometry"/>
            </mxCell>
            <mxCell id="FXCXVvDxTQtwc45PbP1s-1331" value="key" style="aspect=fixed;perimeter=ellipsePerimeter;html=1;align=center;shadow=0;dashed=0;fontColor=#4277BB;labelBackgroundColor=#ffffff;fontSize=12;spacingTop=3;image;image=img/lib/ibm/vpc/SubnetTag.svg;part=1;" parent="FXCXVvDxTQtwc45PbP1s-1330" vertex="1">
            <mxGeometry width="30" height="40" as="geometry"/>
            </mxCell>
        

    
        <!-- ni 60-->
        
            <mxCell id="FXCXVvDxTQtwc45PbP1s-1335" value="edge-0-instance-ky" style="aspect=fixed;perimeter=ellipsePerimeter;html=1;align=center;shadow=0;dashed=0;fontColor=#4277BB;labelBackgroundColor=#ffffff;fontSize=12;spacingTop=3;image;image=img/lib/ibm/devops/release_management.svg;" parent="FXCXVvDxTQtwc45PbP1s-1330" vertex="1">
            <mxGeometry width="60" height="60" x="130" y="90" as="geometry"/>
            </mxCell>
            
                <mxCell id="FXCXVvDxTQtwc45PbP1s-1336" value="vsi_name" style="aspect=fixed;perimeter=ellipsePerimeter;html=1;align=center;shadow=0;dashed=0;fontColor=#4277BB;labelBackgroundColor=#ffffff;fontSize=12;spacingTop=3;image;image=img/lib/ibm/vpc/Instance.svg;" parent="FXCXVvDxTQtwc45PbP1s-1335" vertex="1">
                <mxGeometry x="30" y="-20" width="60" height="60" as="geometry"/>
                </mxCell>
            
            
        

    
        <!-- subnet 60-->
        
            <mxCell id="FXCXVvDxTQtwc45PbP1s-1340" value="0000000: ky-testenv-transit-subnet-1" style="swimlane;fontStyle=0;horizontal=1;collapsible=0;startSize=28;swimlaneLine=0;swimlaneFillColor=none;fillColor=none;rounded=0;whiteSpace=wrap;html=1;absoluteArcSize=1;arcSize=12;strokeColor=#2A8838;verticalAlign=top;align=left;spacingLeft=30;spacingTop=1;dashed=0;strokeWidth=1;" parent="FXCXVvDxTQtwc45PbP1s-1315" vertex="1">
            <mxGeometry width="320" height="240" x="160" y="600" as="geometry"/>
            </mxCell>
            <mxCell id="FXCXVvDxTQtwc45PbP1s-1341" value="key" style="aspect=fixed;perimeter=ellipsePerimeter;html=1;align=center;shadow=0;dashed=0;fontColor=#4277BB;labelBackgroundColor=#ffffff;fontSize=12;spacingTop=3;image;image=img/lib/ibm/vpc/SubnetTag.svg;part=1;" parent="FXCXVvDxTQtwc45PbP1s-1340" vertex="1">
            <mxGeometry width="30" height="40" as="geometry"/>
            </mxCell>
        

    
        <!-- ni 60-->
        
            <mxCell id="FXCXVvDxTQtwc45PbP1s-1345" value="transit-0-instance-ky" style="aspect=fixed;perimeter=ellipsePerimeter;html=1;align=center;shadow=0;dashed=0;fontColor=#4277BB;labelBackgroundColor=#ffffff;fontSize=12;spacingTop=3;image;image=img/lib/ibm/devops/release_management.svg;" parent="FXCXVvDxTQtwc45PbP1s-1340" vertex="1">
            <mxGeometry width="60" height="60" x="130" y="90" as="geometry"/>
            </mxCell>
            
                <mxCell id="FXCXVvDxTQtwc45PbP1s-1346" value="vsi_name" style="aspect=fixed;perimeter=ellipsePerimeter;html=1;align=center;shadow=0;dashed=0;fontColor=#4277BB;labelBackgroundColor=#ffffff;fontSize=12;spacingTop=3;image;image=img/lib/ibm/vpc/Instance.svg;" parent="FXCXVvDxTQtwc45PbP1s-1345" vertex="1">
                <mxGeometry x="30" y="-20" width="60" height="60" as="geometry"/>
                </mxCell>
            
            
        

    
        <!-- gateway 60-->
        
            <mxCell id="FXCXVvDxTQtwc45PbP1s-1350" value="ky-testenv-gateway-1" style="aspect=fixed;perimeter=ellipsePerimeter;html=1;align=center;shadow=0;dashed=0;fontColor=#4277BB;labelBackgroundColor=#ffffff;fontSize=12;spacingTop=3;image;image=img/lib/ibm/vpc/PublicGateway.svg;" parent="FXCXVvDxTQtwc45PbP1s-1315" vertex="1">
            <mxGeometry width="60" height="60" x="50" y="690" as="geometry"/>
            </mxCell>
        

    
        <!-- sg 60-->
        
            <mxCell id="FXCXVvDxTQtwc45PbP1s-1355" value="ky-testenv-default-sg" style="rounded=0;whiteSpace=wrap;html=1;absoluteArcSize=1;arcSize=0;strokeColor=#FD0000;fillColor=none;verticalAlign=top;align=center;spacingLeft=5;dashed=1;dashPattern=5 2;labelPosition=center;verticalLabelPosition=middle;strokeWidth=2;" parent="FXCXVvDxTQtwc45PbP1s-1230" vertex="1">
            <mxGeometry width="1260" height="160" x="290" y="120" as="geometry"/>
            </mxCell>
        

    
        <!-- sg 60-->
        
            <mxCell id="FXCXVvDxTQtwc45PbP1s-1360" value="ky-testenv-default-sg" style="rounded=0;whiteSpace=wrap;html=1;absoluteArcSize=1;arcSize=0;strokeColor=#FD0000;fillColor=none;verticalAlign=top;align=center;spacingLeft=5;dashed=1;dashPattern=5 2;labelPosition=center;verticalLabelPosition=middle;strokeWidth=2;" parent="FXCXVvDxTQtwc45PbP1s-1230" vertex="1">
            <mxGeometry width="1260" height="160" x="290" y="400" as="geometry"/>
            </mxCell>
        

    
        <!-- sg 60-->
        
            <mxCell id="FXCXVvDxTQtwc45PbP1s-1365" value="ky-testenv-default-sg" style="rounded=0;whiteSpace=wrap;html=1;absoluteArcSize=1;arcSize=0;strokeColor=#FD0000;fillColor=none;verticalAlign=top;align=center;spacingLeft=5;dashed=1;dashPattern=5 2;labelPosition=center;verticalLabelPosition=middle;strokeWidth=2;" parent="FXCXVvDxTQtwc45PbP1s-1230" vertex="1">
            <mxGeometry width="1260" height="160" x="290" y="680" as="geometry"/>
            </mxCell>
        

    
</root>
</mxGraphModel>
</diagram>
</mxfile>